<?xml version="1.0" encoding="UTF-8"?>
<svg xmlns="http://www.w3.org/2000/svg" viewBox="0 0 64 64" width="64" height="64">
  <!-- Nền tròn -->
  <circle cx="32" cy="32" r="30" fill="#3498db" />
  
  <!-- Microphone -->
  <rect x="26" y="14" width="12" height="22" rx="6" fill="white" />
  <path d="M20 32a12 12 0 0 0 24 0" fill="none" stroke="white" stroke-width="4" stroke-linecap="round" />
  <line x1="32" y1="42" x2="32" y2="50" stroke="white" stroke-width="4" stroke-linecap="round" />
  <line x1="24" y1="50" x2="40" y2="50" stroke="white" stroke-width="4" stroke-linecap="round" />
  
  <!-- Sóng âm -->
  <path d="M46 24a14 14 0 0 1 0 16" fill="none" stroke="white" stroke-width="2" stroke-linecap="round" />
  <path d="M50 20a20 20 0 0 1 0 24" fill="none" stroke="white" stroke-width="2" stroke-linecap="round" />
  <path d="M18 24a14 14 0 0 0 0 16" fill="none" stroke="white" stroke-width="2" stroke-linecap="round" />
  <path d="M14 20a20 20 0 0 0 0 24" fill="none" stroke="white" stroke-width="2" stroke-linecap="round" />
</svg> 